<?xml version="1.0" encoding="UTF-8"?>
<svg xmlns="http://www.w3.org/2000/svg" xmlns:xlink="http://www.w3.org/1999/xlink" width="24px" height="24px" viewBox="0 0 24 24" version="1.1">
<defs>
<filter id="alpha" filterUnits="objectBoundingBox" x="0%" y="0%" width="100%" height="100%">
  <feColorMatrix type="matrix" in="SourceGraphic" values="0 0 0 0 1 0 0 0 0 1 0 0 0 0 1 0 0 0 1 0"/>
</filter>
<mask id="mask0">
  <g filter="url(#alpha)">
<rect x="0" y="0" width="24" height="24" style="fill:rgb(0%,0%,0%);fill-opacity:0.2;stroke:none;"/>
  </g>
</mask>
<clipPath id="clip1">
  <rect x="0" y="0" width="24" height="24"/>
</clipPath>
<g id="surface5" clip-path="url(#clip1)">
<path style=" stroke:none;fill-rule:nonzero;fill:rgb(0%,0%,0%);fill-opacity:1;" d="M 0.75 7.5 L 0.75 16.5 C 0.75 16.914062 1.085938 17.25 1.5 17.25 L 2.25 17.25 L 2.25 6.75 L 1.5 6.75 C 1.085938 6.75 0.75 7.085938 0.75 7.5 Z M 0.75 7.5 "/>
</g>
</defs>
<g id="surface1">
<path style=" stroke:none;fill-rule:nonzero;fill:rgb(22.352941%,25.882354%,25.098041%);fill-opacity:1;" d="M 22.875 10.875 L 18.375 10.875 C 17.753906 10.875 17.25 11.378906 17.25 12 C 17.25 12.621094 17.753906 13.125 18.375 13.125 L 22.875 13.125 C 23.496094 13.125 24 12.621094 24 12 C 24 11.378906 23.496094 10.875 22.875 10.875 Z M 22.875 12.375 L 18.375 12.375 C 18.167969 12.375 18 12.207031 18 12 C 18 11.792969 18.167969 11.625 18.375 11.625 L 22.875 11.625 C 23.082031 11.625 23.25 11.792969 23.25 12 C 23.25 12.207031 23.082031 12.375 22.875 12.375 Z M 22.875 12.375 "/>
<path style=" stroke:none;fill-rule:nonzero;fill:rgb(22.352941%,25.882354%,25.098041%);fill-opacity:1;" d="M 22.242188 16.714844 L 18.015625 15.175781 C 17.429688 14.960938 16.785156 15.261719 16.570312 15.847656 C 16.359375 16.429688 16.660156 17.074219 17.242188 17.289062 L 21.472656 18.828125 C 22.058594 19.039062 22.703125 18.738281 22.914062 18.15625 C 23.128906 17.570312 22.828125 16.925781 22.242188 16.714844 Z M 22.210938 17.898438 C 22.140625 18.09375 21.925781 18.195312 21.730469 18.125 L 17.5 16.585938 C 17.304688 16.511719 17.207031 16.296875 17.277344 16.105469 C 17.347656 15.910156 17.5625 15.808594 17.757812 15.878906 L 21.984375 17.417969 C 22.179688 17.488281 22.28125 17.703125 22.210938 17.898438 Z M 22.210938 17.898438 "/>
<path style=" stroke:none;fill-rule:nonzero;fill:rgb(22.352941%,25.882354%,25.098041%);fill-opacity:1;" d="M 18.011719 8.824219 L 22.242188 7.285156 C 22.824219 7.074219 23.125 6.425781 22.914062 5.84375 C 22.703125 5.257812 22.054688 4.957031 21.472656 5.171875 L 17.242188 6.710938 C 16.660156 6.921875 16.359375 7.566406 16.570312 8.152344 C 16.785156 8.734375 17.429688 9.035156 18.011719 8.824219 Z M 17.5 7.414062 L 21.730469 5.875 C 21.921875 5.804688 22.140625 5.90625 22.210938 6.101562 C 22.28125 6.296875 22.179688 6.511719 21.984375 6.582031 L 17.757812 8.121094 C 17.5625 8.191406 17.347656 8.089844 17.277344 7.894531 C 17.207031 7.699219 17.304688 7.484375 17.5 7.414062 Z M 17.5 7.414062 "/>
<path style=" stroke:none;fill-rule:nonzero;fill:rgb(22.352941%,25.882354%,25.098041%);fill-opacity:1;" d="M 14.074219 0.113281 C 13.515625 -0.121094 12.871094 0.0117188 12.441406 0.441406 L 7.070312 5.808594 C 7.070312 5.808594 6.914062 6 6.5625 6 C 6.109375 6 1.5 6 1.5 6 C 0.671875 6 0 6.671875 0 7.5 L 0 16.5 C 0 17.328125 0.671875 18 1.5 18 C 1.5 18 6.257812 18 6.503906 18 C 6.75 18 6.917969 18.039062 7.128906 18.25 C 7.339844 18.460938 12.441406 23.558594 12.441406 23.558594 C 12.726562 23.847656 13.109375 24 13.5 24 C 13.695312 24 13.886719 23.964844 14.074219 23.886719 C 14.636719 23.652344 15 23.105469 15 22.5 L 15 1.5 C 15 0.894531 14.636719 0.347656 14.074219 0.113281 Z M 2.25 17.25 L 1.5 17.25 C 1.085938 17.25 0.75 16.914062 0.75 16.5 L 0.75 7.5 C 0.75 7.085938 1.085938 6.75 1.5 6.75 L 2.25 6.75 Z M 4.5 17.25 L 3 17.25 L 3 6.75 L 4.5 6.75 Z M 14.25 22.5 C 14.25 23.25 13.429688 23.554688 12.75 22.875 C 12.335938 22.460938 7.5 17.625 7.5 17.625 C 7.21875 17.34375 6.960938 17.25 6.5625 17.25 L 5.25 17.25 L 5.25 6.75 L 6.5625 6.75 C 6.960938 6.75 7.125 6.75 7.5 6.375 C 7.5 6.375 12.289062 1.585938 12.75 1.125 C 13.417969 0.457031 14.25 0.761719 14.25 1.5 C 14.25 1.898438 14.25 22.101562 14.25 22.5 Z M 14.25 22.5 "/>
<path style=" stroke:none;fill-rule:nonzero;fill:rgb(27.058825%,66.666669%,72.156864%);fill-opacity:1;" d="M 3 6.75 L 4.5 6.75 L 4.5 17.25 L 3 17.25 Z M 3 6.75 "/>
<path style=" stroke:none;fill-rule:nonzero;fill:rgb(96.862745%,42.745098%,34.117648%);fill-opacity:1;" d="M 0.75 7.5 L 0.75 16.5 C 0.75 16.914062 1.085938 17.25 1.5 17.25 L 2.25 17.25 L 2.25 6.75 L 1.5 6.75 C 1.085938 6.75 0.75 7.085938 0.75 7.5 Z M 0.75 7.5 "/>
<path style=" stroke:none;fill-rule:nonzero;fill:rgb(96.862745%,42.745098%,34.117648%);fill-opacity:1;" d="M 12.75 1.125 C 12.289062 1.585938 7.5 6.375 7.5 6.375 C 7.125 6.75 6.960938 6.75 6.5625 6.75 L 5.25 6.75 L 5.25 17.25 L 6.5625 17.25 C 6.960938 17.25 7.21875 17.34375 7.5 17.625 C 7.5 17.625 12.335938 22.460938 12.75 22.875 C 13.429688 23.554688 14.25 23.25 14.25 22.5 C 14.25 22.101562 14.25 1.898438 14.25 1.5 C 14.25 0.761719 13.417969 0.457031 12.75 1.125 Z M 12.75 1.125 "/>
<path style=" stroke:none;fill-rule:nonzero;fill:rgb(70.588237%,80.000001%,72.549021%);fill-opacity:1;" d="M 17.757812 8.121094 L 21.984375 6.582031 C 22.179688 6.507812 22.28125 6.292969 22.210938 6.101562 C 22.140625 5.90625 21.921875 5.804688 21.730469 5.875 L 17.5 7.414062 C 17.304688 7.484375 17.207031 7.699219 17.277344 7.894531 C 17.347656 8.089844 17.5625 8.191406 17.757812 8.121094 Z M 17.757812 8.121094 "/>
<path style=" stroke:none;fill-rule:nonzero;fill:rgb(70.588237%,80.000001%,72.549021%);fill-opacity:1;" d="M 22.875 11.625 L 18.375 11.625 C 18.167969 11.625 18 11.792969 18 12 C 18 12.207031 18.167969 12.375 18.375 12.375 L 22.875 12.375 C 23.082031 12.375 23.25 12.207031 23.25 12 C 23.25 11.792969 23.082031 11.625 22.875 11.625 Z M 22.875 11.625 "/>
<path style=" stroke:none;fill-rule:nonzero;fill:rgb(70.588237%,80.000001%,72.549021%);fill-opacity:1;" d="M 21.984375 17.417969 L 17.757812 15.878906 C 17.5625 15.808594 17.347656 15.910156 17.277344 16.105469 C 17.207031 16.296875 17.304688 16.511719 17.5 16.585938 L 21.730469 18.125 C 21.925781 18.195312 22.140625 18.09375 22.210938 17.898438 C 22.28125 17.703125 22.179688 17.488281 21.984375 17.417969 Z M 21.984375 17.417969 "/>
<use xlink:href="#surface5" mask="url(#mask0)"/>
</g>
</svg>
