<?xml version="1.0" encoding="UTF-8"?>
<svg xmlns="http://www.w3.org/2000/svg" xmlns:xlink="http://www.w3.org/1999/xlink" width="24px" height="24px" viewBox="0 0 24 24" version="1.1">
<g id="surface1">
<path style=" stroke:none;fill-rule:nonzero;fill:rgb(0%,0%,0%);fill-opacity:1;" d="M 2.574219 2.523438 C 2.476562 2.859375 2.429688 7.285156 2.476562 12.382812 L 2.617188 21.667969 L 22.144531 21.667969 L 22.285156 13.855469 L 22.429688 6 L 20.382812 3.953125 L 18.382812 1.90625 L 10.621094 1.90625 C 4.714844 1.90625 2.765625 2.046875 2.574219 2.523438 Z M 17.523438 6.046875 L 17.382812 9.285156 L 6.425781 9.285156 L 6.285156 6.046875 L 6.140625 2.859375 L 17.667969 2.859375 Z M 18.476562 17 L 18.617188 20.953125 L 6.191406 20.953125 L 6.191406 17.238281 C 6.191406 15.191406 6.332031 13.335938 6.523438 13.144531 C 6.710938 13 9.425781 12.902344 12.570312 12.953125 L 18.332031 13.09375 Z M 4.761719 20 C 4.761719 20.238281 4.570312 20.476562 4.285156 20.476562 C 4.046875 20.476562 3.808594 20.238281 3.808594 20 C 3.808594 19.714844 4.046875 19.523438 4.285156 19.523438 C 4.570312 19.523438 4.761719 19.714844 4.761719 20 Z M 20.953125 20 C 20.953125 20.238281 20.765625 20.476562 20.476562 20.476562 C 20.238281 20.476562 20 20.238281 20 20 C 20 19.714844 20.238281 19.523438 20.476562 19.523438 C 20.765625 19.523438 20.953125 19.714844 20.953125 20 Z M 20.953125 20 "/>
<path style=" stroke:none;fill-rule:nonzero;fill:rgb(0%,0%,0%);fill-opacity:1;" d="M 13.8125 6.191406 C 13.8125 7.761719 13.953125 8.097656 14.765625 8.097656 C 15.570312 8.097656 15.710938 7.761719 15.710938 6.191406 C 15.710938 4.621094 15.570312 4.285156 14.765625 4.285156 C 13.953125 4.285156 13.8125 4.621094 13.8125 6.191406 Z M 13.8125 6.191406 "/>
</g>
</svg>
