<?xml version="1.0" encoding="UTF-8"?>
<svg xmlns="http://www.w3.org/2000/svg" xmlns:xlink="http://www.w3.org/1999/xlink" width="32px" height="32px" viewBox="0 0 32 32" version="1.1">
<defs>
<filter id="alpha" filterUnits="objectBoundingBox" x="0%" y="0%" width="100%" height="100%">
  <feColorMatrix type="matrix" in="SourceGraphic" values="0 0 0 0 1 0 0 0 0 1 0 0 0 0 1 0 0 0 1 0"/>
</filter>
<mask id="mask0">
  <g filter="url(#alpha)">
<rect x="0" y="0" width="32" height="32" style="fill:rgb(0%,0%,0%);fill-opacity:0.4;stroke:none;"/>
  </g>
</mask>
<clipPath id="clip1">
  <rect x="0" y="0" width="32" height="32"/>
</clipPath>
<g id="surface5" clip-path="url(#clip1)">
<path style=" stroke:none;fill-rule:nonzero;fill:rgb(16.078431%,17.647059%,19.607843%);fill-opacity:1;" d="M 22.71875 14.1875 L 12.921875 4.386719 L 11.761719 3.226562 C 11.375 2.839844 10.734375 2.839844 10.347656 3.226562 C 9.960938 3.613281 9.960938 4.253906 10.347656 4.640625 L 11.507812 5.800781 L 4 13.308594 C 3.148438 14.160156 2.691406 15.027344 2.667969 15.894531 L 2.761719 15.894531 L 22.921875 15.011719 L 23.078125 15 C 23.066406 14.707031 22.933594 14.398438 22.71875 14.1875 Z M 22.71875 14.1875 "/>
</g>
</defs>
<g id="surface1">
<path style=" stroke:none;fill-rule:nonzero;fill:rgb(16.078431%,17.647059%,19.607843%);fill-opacity:1;" d="M 23.082031 15 C 23.109375 15.347656 22.988281 15.707031 22.722656 15.972656 L 14.695312 24 C 12.921875 25.773438 11.132812 25.773438 9.347656 24 L 4 18.652344 C 3.09375 17.734375 2.640625 16.8125 2.667969 15.894531 L 2.761719 15.894531 L 22.921875 15.011719 Z M 23.082031 15 "/>
<use xlink:href="#surface5" mask="url(#mask0)"/>
<path style=" stroke:none;fill-rule:nonzero;fill:rgb(16.078431%,17.647059%,19.607843%);fill-opacity:1;" d="M 21.332031 30.332031 L 4 30.332031 C 3.453125 30.332031 3 29.878906 3 29.332031 C 3 28.785156 3.453125 28.332031 4 28.332031 L 21.332031 28.332031 C 21.878906 28.332031 22.332031 28.785156 22.332031 29.332031 C 22.332031 29.878906 21.878906 30.332031 21.332031 30.332031 Z M 21.332031 30.332031 "/>
<path style=" stroke:none;fill-rule:nonzero;fill:rgb(16.078431%,17.647059%,19.607843%);fill-opacity:1;" d="M 25.800781 19.707031 C 25.453125 19.332031 24.8125 19.332031 24.464844 19.707031 C 24.054688 20.160156 22 22.480469 22 24.226562 C 22 25.960938 23.398438 27.359375 25.132812 27.359375 C 26.867188 27.359375 28.265625 25.960938 28.265625 24.226562 C 28.265625 22.480469 26.214844 20.160156 25.800781 19.707031 Z M 25.800781 19.707031 "/>
</g>
</svg>
