<?xml version="1.0" encoding="UTF-8"?>
<svg xmlns="http://www.w3.org/2000/svg" xmlns:xlink="http://www.w3.org/1999/xlink" width="20px" height="20px" viewBox="0 0 20 20" version="1.1">
<g id="surface1">
<path style=" stroke:none;fill-rule:nonzero;fill:rgb(0%,0%,0%);fill-opacity:1;" d="M 4.167969 5.207031 L 2.335938 7.082031 L 4.167969 8.957031 C 5.164062 10 6.167969 10.832031 6.332031 10.832031 C 6.957031 10.832031 6.667969 9.832031 5.75 8.875 L 4.875 7.917969 L 7.664062 7.917969 C 9.292969 7.917969 10.960938 8.167969 11.625 8.5 C 13.414062 9.457031 15.335938 11.917969 15.625 13.625 C 16 15.875 16.167969 16.25 16.710938 16.25 C 17.582031 16.25 16.832031 12.582031 15.582031 10.542969 C 13.914062 7.835938 11.585938 6.667969 7.835938 6.667969 C 6.292969 6.667969 5 6.5 5 6.332031 C 5 6.125 5.375 5.625 5.832031 5.207031 C 6.667969 4.457031 6.957031 3.332031 6.332031 3.332031 C 6.167969 3.332031 5.164062 4.167969 4.167969 5.207031 Z M 4.167969 5.207031 "/>
</g>
</svg>
