<?xml version="1.0" encoding="UTF-8"?>
<svg xmlns="http://www.w3.org/2000/svg" xmlns:xlink="http://www.w3.org/1999/xlink" width="24px" height="24px" viewBox="0 0 24 24" version="1.1">
<g id="surface1">
<path style=" stroke:none;fill-rule:nonzero;fill:rgb(0%,0%,0%);fill-opacity:1;" d="M 17.917969 1.207031 C 17.917969 1.207031 16.625 1.21875 15.554688 2.148438 L 14.683594 1.378906 C 14.644531 1.34375 14.589844 1.320312 14.53125 1.320312 C 14.460938 1.316406 14.390625 1.347656 14.34375 1.402344 L 13.160156 2.765625 L 11.597656 2.535156 C 11.535156 2.527344 11.472656 2.542969 11.421875 2.578125 L 10.015625 3.585938 L 9.398438 2.816406 C 9.351562 2.761719 9.285156 2.726562 9.210938 2.726562 C 9.128906 2.726562 9.054688 2.769531 9.011719 2.835938 L 8.496094 3.636719 C 8.433594 3.613281 8.363281 3.601562 8.296875 3.601562 C 8.269531 3.605469 8.242188 3.605469 8.214844 3.613281 C 6.855469 3.890625 6.167969 4.375 5.859375 4.898438 C 5.550781 5.414062 5.699219 5.949219 5.699219 5.960938 C 5.667969 6.078125 5.683594 6.203125 5.742188 6.308594 C 5.71875 6.359375 5.707031 6.414062 5.703125 6.472656 C 5.4375 12.113281 5.96875 16.675781 5.707031 20.882812 C 5.691406 21.105469 5.835938 21.3125 6.054688 21.375 C 9.957031 22.460938 14.480469 22.382812 18.566406 21.378906 C 18.777344 21.324219 18.929688 21.140625 18.933594 20.921875 C 19.003906 17.988281 18.921875 14.796875 18.667969 11.316406 L 19.046875 6.113281 C 19.046875 6.085938 19.046875 6.0625 19.046875 6.035156 C 19.050781 6.011719 19.054688 5.984375 19.054688 5.960938 C 19.089844 5.425781 18.976562 4.785156 18.503906 4.140625 C 18.449219 4.0625 18.371094 4.003906 18.277344 3.972656 C 18.335938 3.8125 18.378906 3.640625 18.402344 3.453125 C 18.476562 2.914062 18.410156 2.25 18.148438 1.375 C 18.117188 1.273438 18.023438 1.207031 17.917969 1.207031 Z M 17.730469 1.699219 C 17.925781 2.425781 17.984375 2.976562 17.925781 3.386719 C 17.875 3.769531 17.738281 4.046875 17.566406 4.304688 L 15.09375 3.570312 C 15.25 3.238281 15.4375 2.96875 15.632812 2.746094 C 15.632812 2.835938 15.652344 2.929688 15.703125 3.015625 C 15.78125 3.15625 15.925781 3.265625 16.121094 3.34375 C 16.347656 3.441406 16.589844 3.410156 16.753906 3.289062 C 16.917969 3.171875 17.007812 2.988281 17.019531 2.796875 C 17.027344 2.605469 16.941406 2.390625 16.753906 2.265625 C 16.660156 2.203125 16.546875 2.164062 16.421875 2.148438 C 16.398438 2.148438 16.371094 2.148438 16.347656 2.148438 C 16.929688 1.792969 17.492188 1.714844 17.730469 1.699219 Z M 14.546875 1.898438 L 15.210938 2.488281 C 14.945312 2.789062 14.707031 3.164062 14.523438 3.628906 C 14.5 3.691406 14.503906 3.761719 14.53125 3.820312 C 14.5625 3.882812 14.613281 3.925781 14.679688 3.945312 L 16.34375 4.441406 L 16.183594 4.835938 L 14.910156 4.480469 C 14.828125 4.453125 14.738281 4.476562 14.675781 4.535156 C 14.609375 4.597656 14.585938 4.6875 14.609375 4.769531 C 14.632812 4.855469 14.699219 4.921875 14.78125 4.941406 L 16 5.28125 L 15.71875 5.972656 L 14.941406 5.722656 C 14.855469 5.691406 14.765625 5.710938 14.699219 5.769531 C 14.632812 5.824219 14.605469 5.914062 14.625 6 C 14.644531 6.085938 14.707031 6.15625 14.792969 6.179688 L 15.46875 6.398438 C 14.988281 6.488281 14.503906 6.554688 14.03125 6.601562 C 14.03125 6.589844 14.03125 6.578125 14.03125 6.566406 L 13.917969 4.105469 C 13.914062 4.03125 13.875 3.964844 13.816406 3.921875 C 13.757812 3.878906 13.679688 3.867188 13.609375 3.886719 L 10.898438 4.6875 L 10.316406 3.960938 L 11.625 3.023438 L 13.21875 3.261719 C 13.300781 3.273438 13.378906 3.242188 13.433594 3.179688 Z M 16.371094 2.640625 C 16.425781 2.644531 16.46875 2.652344 16.484375 2.664062 C 16.53125 2.695312 16.542969 2.726562 16.539062 2.773438 C 16.535156 2.824219 16.507812 2.878906 16.472656 2.902344 C 16.441406 2.925781 16.40625 2.945312 16.304688 2.902344 C 16.171875 2.847656 16.128906 2.796875 16.117188 2.777344 C 16.105469 2.757812 16.105469 2.757812 16.113281 2.730469 C 16.125 2.699219 16.144531 2.679688 16.171875 2.648438 C 16.246094 2.640625 16.316406 2.640625 16.371094 2.640625 Z M 9.234375 3.378906 L 10.625 5.113281 C 10.6875 5.191406 10.789062 5.222656 10.882812 5.195312 L 13.453125 4.433594 L 13.550781 6.589844 C 13.554688 6.609375 13.554688 6.625 13.558594 6.644531 C 12.441406 6.722656 11.371094 6.695312 10.410156 6.609375 C 9.265625 6.503906 8.285156 6.3125 7.578125 6.125 C 7.539062 6.117188 7.515625 6.109375 7.480469 6.097656 L 8.492188 4.53125 C 8.683594 4.453125 8.808594 4.261719 8.796875 4.054688 Z M 16.804688 4.582031 L 17.605469 4.816406 C 17.667969 4.835938 17.734375 4.828125 17.789062 4.796875 C 18.015625 5.125 18.089844 5.382812 18.101562 5.648438 C 17.535156 5.871094 16.964844 6.050781 16.390625 6.195312 C 16.375 6.1875 16.355469 6.179688 16.339844 6.171875 L 16.175781 6.121094 L 16.464844 5.414062 L 16.9375 5.542969 C 17.066406 5.578125 17.199219 5.503906 17.234375 5.378906 C 17.269531 5.25 17.195312 5.117188 17.066406 5.082031 L 16.648438 4.964844 Z M 7.804688 4.710938 L 7.066406 5.859375 C 7.042969 5.890625 7.03125 5.925781 7.027344 5.960938 C 6.921875 5.925781 6.820312 5.894531 6.746094 5.863281 C 6.695312 5.84375 6.671875 5.828125 6.636719 5.8125 C 6.636719 5.757812 6.628906 5.703125 6.609375 5.652344 C 6.609375 5.652344 6.558594 5.597656 6.683594 5.386719 C 6.78125 5.21875 7.066406 4.941406 7.804688 4.710938 Z M 18.039062 6.699219 L 17.707031 11.273438 C 17.707031 11.296875 17.707031 11.320312 17.707031 11.34375 C 17.714844 11.441406 17.722656 11.539062 17.726562 11.636719 C 17.277344 11.835938 16.804688 11.839844 16.054688 11.839844 C 15.964844 11.839844 15.886719 11.886719 15.84375 11.960938 C 15.800781 12.035156 15.800781 12.128906 15.84375 12.203125 C 15.886719 12.277344 15.964844 12.324219 16.054688 12.320312 C 16.734375 12.320312 17.257812 12.320312 17.761719 12.140625 C 17.960938 15.15625 18.023438 17.929688 17.972656 20.511719 C 15.753906 21.023438 13.410156 21.246094 11.136719 21.152344 L 11.285156 20.695312 C 11.3125 20.621094 11.300781 20.539062 11.253906 20.476562 C 11.210938 20.414062 11.136719 20.375 11.0625 20.375 C 10.957031 20.375 10.863281 20.445312 10.832031 20.542969 L 10.636719 21.128906 C 10.390625 21.113281 10.144531 21.09375 9.898438 21.070312 L 10.171875 20.6875 C 10.226562 20.613281 10.234375 20.515625 10.195312 20.4375 C 10.152344 20.355469 10.070312 20.304688 9.980469 20.304688 C 9.902344 20.304688 9.828125 20.34375 9.78125 20.40625 L 9.351562 21.015625 C 9.15625 20.992188 8.964844 20.964844 8.773438 20.9375 L 9.066406 20.351562 C 9.105469 20.273438 9.101562 20.183594 9.054688 20.109375 C 9.007812 20.039062 8.925781 19.996094 8.839844 20 C 8.753906 20.007812 8.675781 20.058594 8.636719 20.136719 L 8.277344 20.859375 C 8.011719 20.8125 7.746094 20.761719 7.488281 20.707031 L 7.867188 19.953125 C 7.90625 19.875 7.902344 19.78125 7.855469 19.710938 C 7.808594 19.636719 7.726562 19.597656 7.640625 19.601562 C 7.550781 19.605469 7.476562 19.65625 7.4375 19.738281 L 7.035156 20.535156 C 7.027344 20.558594 7.019531 20.578125 7.015625 20.601562 C 6.902344 20.574219 6.785156 20.550781 6.671875 20.519531 C 6.882812 16.402344 6.429688 12.078125 6.652344 6.847656 C 6.847656 6.914062 7.066406 6.984375 7.332031 7.054688 C 7.484375 7.097656 7.660156 7.136719 7.835938 7.175781 L 7.4375 7.972656 C 7.394531 8.050781 7.398438 8.144531 7.445312 8.21875 C 7.496094 8.289062 7.578125 8.332031 7.664062 8.328125 C 7.753906 8.320312 7.828125 8.265625 7.867188 8.1875 L 8.265625 7.386719 C 8.285156 7.351562 8.292969 7.3125 8.292969 7.269531 C 8.515625 7.316406 8.746094 7.355469 8.992188 7.394531 L 8.769531 7.839844 C 8.710938 7.957031 8.757812 8.101562 8.878906 8.160156 C 8.996094 8.222656 9.140625 8.171875 9.199219 8.054688 L 9.492188 7.472656 C 9.746094 7.503906 10.007812 7.535156 10.28125 7.558594 L 10.039062 7.890625 C 9.984375 7.960938 9.972656 8.050781 10.007812 8.132812 C 10.042969 8.210938 10.117188 8.265625 10.203125 8.273438 C 10.292969 8.285156 10.375 8.246094 10.425781 8.171875 L 10.84375 7.601562 C 11.058594 7.617188 11.269531 7.628906 11.488281 7.636719 L 11.324219 8.011719 C 11.273438 8.132812 11.328125 8.277344 11.449219 8.328125 C 11.570312 8.382812 11.710938 8.328125 11.765625 8.207031 L 12.007812 7.648438 C 12.226562 7.652344 12.441406 7.652344 12.664062 7.648438 L 12.488281 8 C 12.429688 8.117188 12.476562 8.261719 12.597656 8.320312 C 12.714844 8.378906 12.859375 8.332031 12.917969 8.214844 L 13.210938 7.628906 C 13.460938 7.617188 13.714844 7.597656 13.972656 7.574219 L 13.796875 8.144531 C 13.757812 8.269531 13.828125 8.402344 13.953125 8.441406 C 14.082031 8.484375 14.214844 8.410156 14.253906 8.285156 L 14.492188 7.519531 C 14.75 7.488281 15.007812 7.453125 15.269531 7.410156 L 15.058594 7.742188 C 15.011719 7.8125 15.007812 7.90625 15.046875 7.984375 C 15.085938 8.0625 15.164062 8.113281 15.253906 8.113281 C 15.339844 8.117188 15.421875 8.074219 15.464844 7.996094 L 15.910156 7.292969 C 16.210938 7.230469 16.515625 7.160156 16.820312 7.078125 L 16.523438 7.917969 C 16.480469 8.042969 16.546875 8.179688 16.671875 8.226562 C 16.796875 8.269531 16.933594 8.203125 16.976562 8.078125 L 17.273438 7.234375 C 17.308594 7.140625 17.28125 7.035156 17.207031 6.96875 C 17.484375 6.886719 17.761719 6.796875 18.039062 6.699219 Z M 8.878906 8.71875 C 8.671875 8.71875 8.46875 8.800781 8.324219 8.945312 C 8.175781 9.09375 8.09375 9.296875 8.101562 9.503906 C 8.140625 10.304688 8.210938 11.71875 8.210938 11.738281 L 7.945312 16.148438 C 7.945312 16.175781 8.011719 17.65625 8.050781 18.503906 C 8.074219 18.960938 8.46875 19.3125 8.925781 19.3125 L 9.199219 19.3125 C 9.570312 19.3125 9.890625 19.015625 9.890625 18.644531 L 9.890625 12.375 C 9.894531 12.285156 9.847656 12.207031 9.773438 12.164062 C 9.699219 12.117188 9.605469 12.117188 9.53125 12.164062 C 9.457031 12.207031 9.410156 12.285156 9.410156 12.375 L 9.410156 18.644531 C 9.410156 18.742188 9.324219 18.832031 9.199219 18.832031 L 8.925781 18.832031 C 8.707031 18.832031 8.539062 18.671875 8.53125 18.484375 C 8.492188 17.640625 8.425781 16.1875 8.425781 16.167969 L 8.691406 11.753906 C 8.691406 11.730469 8.621094 10.289062 8.582031 9.480469 C 8.578125 9.410156 8.605469 9.34375 8.660156 9.289062 C 8.714844 9.234375 8.792969 9.199219 8.878906 9.199219 L 8.886719 9.199219 C 9.027344 9.199219 9.164062 9.253906 9.261719 9.347656 C 9.359375 9.4375 9.410156 9.558594 9.410156 9.683594 L 9.410156 10.984375 C 9.410156 11.070312 9.457031 11.148438 9.53125 11.195312 C 9.605469 11.238281 9.699219 11.238281 9.773438 11.195312 C 9.847656 11.148438 9.894531 11.070312 9.890625 10.984375 L 9.890625 9.683594 C 9.890625 9.425781 9.78125 9.179688 9.59375 9 C 9.402344 8.820312 9.148438 8.71875 8.886719 8.71875 Z M 15.414062 8.71875 C 15.207031 8.71875 15.003906 8.800781 14.859375 8.945312 C 14.710938 9.09375 14.628906 9.296875 14.636719 9.503906 C 14.675781 10.304688 14.746094 11.71875 14.746094 11.738281 L 14.480469 16.148438 C 14.480469 16.175781 14.546875 17.65625 14.585938 18.503906 C 14.605469 18.960938 15 19.3125 15.460938 19.3125 L 15.734375 19.3125 C 16.105469 19.3125 16.425781 19.015625 16.425781 18.644531 L 16.425781 13.132812 C 16.425781 13.046875 16.382812 12.964844 16.308594 12.921875 C 16.234375 12.878906 16.140625 12.878906 16.066406 12.921875 C 15.992188 12.964844 15.945312 13.046875 15.945312 13.132812 L 15.945312 18.644531 C 15.945312 18.742188 15.859375 18.832031 15.734375 18.832031 L 15.460938 18.832031 C 15.242188 18.832031 15.074219 18.671875 15.066406 18.484375 C 15.027344 17.640625 14.960938 16.1875 14.960938 16.167969 L 15.226562 11.753906 C 15.226562 11.730469 15.15625 10.289062 15.117188 9.480469 C 15.113281 9.410156 15.140625 9.34375 15.195312 9.289062 C 15.25 9.234375 15.332031 9.199219 15.414062 9.199219 L 15.421875 9.199219 C 15.5625 9.199219 15.699219 9.253906 15.796875 9.347656 C 15.894531 9.4375 15.945312 9.558594 15.945312 9.683594 L 15.945312 10.984375 C 15.945312 11.070312 15.992188 11.148438 16.066406 11.195312 C 16.140625 11.238281 16.234375 11.238281 16.308594 11.195312 C 16.382812 11.148438 16.425781 11.070312 16.425781 10.984375 L 16.425781 9.683594 C 16.425781 9.425781 16.316406 9.179688 16.128906 9 C 15.9375 8.820312 15.683594 8.71875 15.421875 8.71875 Z M 12.125 8.972656 C 11.667969 8.972656 11.273438 9.320312 11.25 9.777344 C 11.210938 10.554688 11.144531 11.855469 11.144531 11.855469 L 11.414062 16.296875 C 11.410156 16.3125 11.335938 18.117188 11.300781 19.039062 C 11.292969 19.246094 11.375 19.445312 11.519531 19.59375 C 11.667969 19.738281 11.867188 19.816406 12.078125 19.816406 L 12.085938 19.816406 C 12.351562 19.816406 12.605469 19.71875 12.792969 19.539062 C 12.984375 19.359375 13.09375 19.113281 13.09375 18.851562 L 13.09375 17.050781 C 13.09375 16.960938 13.046875 16.882812 12.972656 16.839844 C 12.898438 16.796875 12.804688 16.796875 12.730469 16.839844 C 12.65625 16.882812 12.613281 16.960938 12.613281 17.050781 L 12.613281 18.851562 C 12.613281 18.976562 12.5625 19.097656 12.464844 19.191406 C 12.367188 19.285156 12.230469 19.335938 12.085938 19.335938 L 12.078125 19.335938 C 11.992188 19.335938 11.914062 19.304688 11.859375 19.25 C 11.804688 19.195312 11.777344 19.128906 11.78125 19.058594 C 11.816406 18.128906 11.890625 16.300781 11.890625 16.300781 L 11.625 11.863281 C 11.625 11.847656 11.691406 10.574219 11.730469 9.800781 C 11.738281 9.609375 11.90625 9.453125 12.125 9.453125 L 12.402344 9.453125 C 12.460938 9.453125 12.515625 9.476562 12.554688 9.511719 C 12.59375 9.550781 12.613281 9.59375 12.613281 9.640625 L 12.613281 15.660156 C 12.609375 15.746094 12.65625 15.824219 12.730469 15.871094 C 12.804688 15.914062 12.898438 15.914062 12.972656 15.871094 C 13.046875 15.824219 13.09375 15.746094 13.09375 15.660156 L 13.09375 9.640625 C 13.09375 9.460938 13.015625 9.289062 12.886719 9.164062 C 12.753906 9.039062 12.582031 8.972656 12.402344 8.972656 Z M 17.121094 17.175781 C 16.972656 17.175781 16.851562 17.296875 16.851562 17.445312 C 16.851562 17.589844 16.972656 17.710938 17.121094 17.710938 C 17.265625 17.710938 17.386719 17.589844 17.386719 17.445312 C 17.386719 17.296875 17.265625 17.175781 17.121094 17.175781 Z M 17.285156 18.628906 C 17.140625 18.628906 17.019531 18.746094 17.019531 18.894531 C 17.019531 19.042969 17.140625 19.160156 17.285156 19.160156 C 17.433594 19.160156 17.554688 19.042969 17.554688 18.894531 C 17.554688 18.746094 17.433594 18.628906 17.285156 18.628906 Z M 16.4375 19.800781 C 16.289062 19.800781 16.167969 19.921875 16.167969 20.070312 C 16.167969 20.214844 16.289062 20.335938 16.4375 20.335938 C 16.582031 20.335938 16.703125 20.214844 16.703125 20.070312 C 16.703125 19.921875 16.582031 19.800781 16.4375 19.800781 Z M 16.4375 19.800781 "/>
</g>
</svg>
