<?xml version="1.0" standalone="no"?>
<!DOCTYPE svg PUBLIC "-//W3C//DTD SVG 1.0//EN" "http://www.w3.org/TR/2001/REC-SVG-20010904/DTD/svg10.dtd">
<svg xmlns="http://www.w3.org/2000/svg" xmlns:xlink="http://www.w3.org/1999/xlink" id="body_1" width="24" height="24">

<g transform="matrix(0.75 0 0 0.75 -0 1.5)">
	<g>
		<g transform="matrix(1 0 0 1 -99 -154)">
            <path d="M128.735 157.585L116.047 170.112L114.65 168.733L127.339 156.206C 127.725 155.825 128.35 155.825 128.735 156.206C 129.121 156.587 129.121 157.204 128.735 157.585zM112.556 173.56C 112.427 173.433 111.159 172.181 111.159 172.181L111.159 172.181L113.254 170.112L114.65 171.491L112.556 173.56zM110.461 178.385C 109.477 179.298 105.08 181.333 102.491 179.36C 102.491 179.36 103.392 178.657 104.074 177.246C 105.703 172.919 109.763 173.56 109.763 173.56L109.763 173.56L111.159 174.938C 111.173 174.952 112.202 176.771 110.461 178.385zM130.132 154.827C 128.975 153.685 127.099 153.685 125.942 154.827L125.942 154.827L108.764 171.788C 106.661 171.74 103.748 172.485 102.491 176.603C 101.53 178.781 99 178.671 99 178.671C 104.253 184.498 110.444 181.196 111.857 179.764C 113.1 178.506 113.279 176.966 113.146 175.734L113.146 175.734L130.132 158.964C 131.289 157.821 131.289 155.969 130.132 154.827z" stroke="none" fill="#000000" fill-rule="nonzero" />
		</g>
	</g>
</g>
</svg>